<svg width="581" height="534" viewBox="0 0 581 534" fill="none" xmlns="http://www.w3.org/2000/svg">
<g clip-path="url(#clip0_2_7)">
<g filter="url(#filter0_d_2_7)">
<path d="M271.444 0H4.24132C1.8989 0 0 1.9681 0 4.39588V253.862C0 256.29 1.8989 258.258 4.24132 258.258H271.444C273.787 258.258 275.686 256.29 275.686 253.862V4.39588C275.686 1.9681 273.787 0 271.444 0Z" fill="black"/>
</g>
<path d="M271.444 0H4.24132C1.8989 0 0 1.9681 0 4.39588V253.862C0 256.29 1.8989 258.258 4.24132 258.258H271.444C273.787 258.258 275.686 256.29 275.686 253.862V4.39588C275.686 1.9681 273.787 0 271.444 0Z" fill="white"/>
<path fill-rule="evenodd" clip-rule="evenodd" d="M17.1858 17.811H261.365V240.447H17.1858V17.811Z" fill="#FAFAFA" stroke="#E5E9EA"/>
<path fill-rule="evenodd" clip-rule="evenodd" d="M17.1858 129.129H261.365V130.228H17.1858V129.129ZM17.1858 150.002H261.365V151.101H17.1858V150.002ZM17.1858 170.873H261.365V171.972H17.1858V170.873ZM17.1858 191.745H261.365V192.844H17.1858V191.745ZM17.1858 45.6402H261.365V46.7392H17.1858V45.6402ZM17.1858 24.7686H261.365V25.8676H17.1858V24.7686ZM17.1858 66.513H261.365V67.6119H17.1858V66.513ZM17.1858 87.3846H261.365V88.4835H17.1858V87.3846ZM17.1858 108.257H261.365V109.356H17.1858V108.257ZM17.1858 212.618H261.365V213.717H17.1858V212.618ZM17.1858 233.489H261.365V234.588H17.1858V233.489Z" fill="#E5E9EA"/>
<path fill-rule="evenodd" clip-rule="evenodd" d="M23.6305 129.129H56.5696V179.294C56.5696 180.751 56.0111 182.148 55.0168 183.179C54.0226 184.209 52.6741 184.788 51.268 184.788H28.9321C27.5261 184.788 26.1776 184.209 25.1833 183.179C24.1891 182.148 23.6305 180.751 23.6305 179.294V129.129Z" fill="#242D52"/>
<path fill-rule="evenodd" clip-rule="evenodd" d="M23.6305 129.129H56.5696V165.378C56.5696 166.836 56.0111 168.233 55.0168 169.264C54.0226 170.294 52.6741 170.873 51.268 170.873H28.9321C27.5261 170.873 26.1776 170.294 25.1833 169.264C24.1891 168.233 23.6305 166.836 23.6305 165.378V129.129ZM73.7544 128.837H106.693V90.8386C106.693 89.3813 106.135 87.9836 105.141 86.9532C104.146 85.9227 102.798 85.3438 101.392 85.3438H79.056C77.6499 85.3438 76.3014 85.9227 75.3072 86.9532C74.3129 87.9836 73.7544 89.3813 73.7544 90.8386V128.837Z" fill="#F3603C"/>
<path fill-rule="evenodd" clip-rule="evenodd" d="M73.7544 128.836H106.693V185.972C106.693 187.429 106.135 188.827 105.141 189.857C104.146 190.888 102.798 191.467 101.392 191.467H79.056C77.6499 191.467 76.3014 190.888 75.3072 189.857C74.3129 188.827 73.7544 187.429 73.7544 185.972V128.836ZM171.856 129.129H204.795V50.7646C204.795 50.043 204.658 49.3285 204.392 48.6618C204.125 47.9952 203.735 47.3894 203.242 46.8792C202.75 46.3689 202.166 45.9642 201.522 45.688C200.879 45.4119 200.19 45.2698 199.493 45.2698H177.158C175.752 45.2698 174.403 45.8487 173.409 46.8792C172.415 47.9097 171.856 49.3073 171.856 50.7646V129.129Z" fill="#242D52"/>
<path fill-rule="evenodd" clip-rule="evenodd" d="M171.856 129.129H204.795V71.7297C204.795 71.0081 204.658 70.2936 204.392 69.6269C204.125 68.9603 203.735 68.3545 203.242 67.8443C202.75 67.334 202.166 66.9293 201.522 66.6531C200.879 66.377 200.19 66.2349 199.493 66.2349H177.158C175.752 66.2349 174.403 66.8138 173.409 67.8443C172.415 68.8747 171.856 70.2724 171.856 71.7297V129.129Z" fill="#F3603C"/>
<path fill-rule="evenodd" clip-rule="evenodd" d="M221.981 129.129H254.92V193.393C254.92 194.851 254.362 196.248 253.367 197.279C252.373 198.309 251.025 198.888 249.618 198.888H227.282C225.875 198.888 224.527 198.309 223.533 197.279C222.538 196.248 221.98 194.851 221.98 193.393L221.981 129.129Z" fill="#242D52"/>
<path fill-rule="evenodd" clip-rule="evenodd" d="M221.981 129.129H254.92V179.442C254.92 180.899 254.362 182.297 253.367 183.327C252.373 184.358 251.025 184.937 249.618 184.937H227.282C225.875 184.937 224.527 184.358 223.533 183.327C222.538 182.297 221.98 180.899 221.98 179.442L221.981 129.129Z" fill="#F3603C"/>
<path fill-rule="evenodd" clip-rule="evenodd" d="M122.448 129.129H155.387V228.273C155.387 229.731 154.828 231.128 153.834 232.159C152.84 233.189 151.491 233.768 150.085 233.768H127.748C126.342 233.768 124.994 233.189 124 232.159C123.005 231.128 122.447 229.731 122.447 228.273L122.448 129.129Z" fill="#F3603C"/>
<path fill-rule="evenodd" clip-rule="evenodd" d="M122.448 129.129H155.387V165.489C155.387 166.947 154.828 168.344 153.834 169.375C152.84 170.405 151.491 170.984 150.085 170.984H127.748C126.342 170.984 124.994 170.405 124 169.375C123.005 168.344 122.447 166.947 122.447 165.489L122.448 129.129Z" fill="#242D52"/>
<g filter="url(#filter1_d_2_7)">
<path d="M575.759 0H308.556C306.213 0 304.314 1.9681 304.314 4.39588V253.862C304.314 256.29 306.213 258.258 308.556 258.258H575.759C578.101 258.258 580 256.29 580 253.862V4.39588C580 1.9681 578.101 0 575.759 0Z" fill="black"/>
</g>
<path d="M575.759 0H308.556C306.213 0 304.314 1.9681 304.314 4.39588V253.862C304.314 256.29 306.213 258.258 308.556 258.258H575.759C578.101 258.258 580 256.29 580 253.862V4.39588C580 1.9681 578.101 0 575.759 0Z" fill="white"/>
<path d="M442.516 196.203C478.26 196.203 507.237 166.173 507.237 129.129C507.237 92.0846 478.26 62.0544 442.516 62.0544C406.771 62.0544 377.794 92.0846 377.794 129.129C377.794 166.173 406.771 196.203 442.516 196.203Z" stroke="white" stroke-width="40"/>
<mask id="mask0_2_7" style="mask-type:luminance" maskUnits="userSpaceOnUse" x="356" y="40" width="173" height="179">
<path d="M442.516 218.183C489.972 218.183 528.444 178.312 528.444 129.129C528.444 79.9458 489.972 40.075 442.516 40.075C395.059 40.075 356.588 79.9458 356.588 129.129C356.588 178.312 395.059 218.183 442.516 218.183Z" fill="white"/>
</mask>
<g mask="url(#mask0_2_7)">
<path d="M442.516 218.183C489.972 218.183 528.444 178.312 528.444 129.129C528.444 79.9458 489.972 40.075 442.516 40.075C395.059 40.075 356.588 79.9458 356.588 129.129C356.588 178.312 395.059 218.183 442.516 218.183Z" stroke="#F3603C" stroke-width="80" stroke-dasharray="502 502"/>
</g>
<mask id="mask1_2_7" style="mask-type:luminance" maskUnits="userSpaceOnUse" x="356" y="40" width="173" height="179">
<path d="M442.516 218.183C489.972 218.183 528.444 178.312 528.444 129.129C528.444 79.9458 489.972 40.075 442.516 40.075C395.059 40.075 356.588 79.9458 356.588 129.129C356.588 178.312 395.059 218.183 442.516 218.183Z" fill="white"/>
</mask>
<g mask="url(#mask1_2_7)">
<path d="M442.516 218.183C489.972 218.183 528.444 178.312 528.444 129.129C528.444 79.9458 489.972 40.075 442.516 40.075C395.059 40.075 356.588 79.9458 356.588 129.129C356.588 178.312 395.059 218.183 442.516 218.183Z" stroke="#242D52" stroke-width="80" stroke-dasharray="340 340"/>
</g>
<g filter="url(#filter2_d_2_7)">
<path d="M419.89 274.742H152.687C150.345 274.742 148.446 276.71 148.446 279.138V528.604C148.446 531.032 150.345 533 152.687 533H419.89C422.233 533 424.132 531.032 424.132 528.604V279.138C424.132 276.71 422.233 274.742 419.89 274.742Z" fill="black"/>
</g>
<path d="M419.89 274.742H152.687C150.345 274.742 148.446 276.71 148.446 279.138V528.604C148.446 531.032 150.345 533 152.687 533H419.89C422.233 533 424.132 531.032 424.132 528.604V279.138C424.132 276.71 422.233 274.742 419.89 274.742Z" fill="white"/>
<path d="M273.813 429.103H169.873C167.531 429.103 165.632 431.072 165.632 433.499V510.793C165.632 513.221 167.531 515.189 169.873 515.189H273.813C276.155 515.189 278.054 513.221 278.054 510.793V433.499C278.054 431.072 276.155 429.103 273.813 429.103Z" fill="#F3603C"/>
<path d="M190.066 494.397V490.103H194.198V488.147H190.066V483.852H188.178V488.146H184.034V490.102H188.178V494.397H190.065H190.066ZM203.07 496.636V481.134H200.782L197.142 484.428V487.037L200.656 483.765V496.635H203.069L203.07 496.636ZM209.895 496.854C210.3 496.854 210.648 496.705 210.939 496.408C211.229 496.111 211.373 495.752 211.373 495.331C211.373 494.911 211.229 494.55 210.939 494.25C210.804 494.105 210.641 493.991 210.462 493.913C210.283 493.836 210.09 493.797 209.895 493.8C209.497 493.8 209.151 493.949 208.856 494.25C208.715 494.39 208.603 494.557 208.527 494.743C208.452 494.93 208.414 495.13 208.416 495.332C208.416 495.745 208.564 496.101 208.857 496.402C209.151 496.703 209.497 496.854 209.895 496.854ZM218.997 496.843C220.535 496.843 221.778 496.355 222.726 495.381C223.673 494.405 224.147 493.125 224.147 491.538C224.147 489.958 223.683 488.742 222.752 487.89C221.822 487.039 220.42 486.614 218.547 486.614H216.909L217.235 483.407H223.465V481.145H215.128L214.352 488.743H218.201C220.544 488.743 221.715 489.704 221.715 491.625C221.715 492.494 221.469 493.196 220.976 493.728C220.483 494.261 219.806 494.527 218.945 494.527C218.198 494.527 217.559 494.302 217.031 493.854C216.503 493.403 216.239 492.729 216.239 491.832C216.239 491.65 216.264 491.389 216.314 491.049L213.89 491.201C213.855 491.513 213.837 491.773 213.837 491.983C213.837 492.991 214.078 493.869 214.561 494.62C215.022 495.35 215.673 495.93 216.439 496.293C217.208 496.659 218.061 496.843 218.998 496.843H218.997ZM228.76 487.732C229.192 487.74 229.62 487.655 230.019 487.483C230.418 487.311 230.778 487.055 231.078 486.732C231.714 486.059 232.032 485.251 232.032 484.309C232.032 483.374 231.714 482.573 231.078 481.906C230.778 481.583 230.418 481.327 230.019 481.155C229.62 480.983 229.192 480.898 228.76 480.906C227.858 480.906 227.084 481.24 226.442 481.906C226.131 482.217 225.885 482.59 225.719 483.004C225.553 483.417 225.471 483.861 225.477 484.309C225.477 485.257 225.797 486.066 226.436 486.732C227.076 487.399 227.851 487.732 228.76 487.732ZM229.913 496.647L237.823 481.112H235.724L227.837 496.647H229.913ZM228.76 486.005C228.312 486.005 227.927 485.84 227.606 485.51C227.45 485.355 227.327 485.169 227.244 484.962C227.161 484.755 227.12 484.533 227.124 484.309C227.124 483.837 227.285 483.441 227.606 483.118C227.757 482.961 227.938 482.838 228.136 482.755C228.334 482.672 228.546 482.631 228.76 482.634C229.215 482.634 229.599 482.798 229.913 483.123C230.228 483.45 230.385 483.844 230.385 484.309C230.385 484.779 230.23 485.181 229.919 485.51C229.608 485.84 229.221 486.005 228.76 486.005ZM237.014 496.821C237.917 496.821 238.684 496.488 239.317 495.821C239.624 495.508 239.866 495.133 240.029 494.72C240.192 494.307 240.273 493.865 240.266 493.418C240.266 492.477 239.948 491.673 239.312 491.011C239.015 490.69 238.658 490.437 238.263 490.266C237.868 490.095 237.443 490.01 237.014 490.016C236.106 490.016 235.329 490.347 234.686 491.011C234.374 491.322 234.128 491.696 233.962 492.111C233.796 492.525 233.714 492.97 233.721 493.418C233.721 494.36 234.041 495.164 234.681 495.826C235.321 496.489 236.099 496.821 237.014 496.821ZM237.014 495.103C236.553 495.103 236.166 494.938 235.85 494.609C235.698 494.454 235.577 494.268 235.496 494.064C235.415 493.859 235.375 493.64 235.378 493.418C235.378 492.94 235.536 492.538 235.85 492.212C236.002 492.052 236.183 491.926 236.383 491.842C236.584 491.758 236.798 491.718 237.014 491.723C237.455 491.723 237.838 491.889 238.164 492.223C238.488 492.556 238.651 492.955 238.651 493.418C238.651 493.882 238.49 494.279 238.169 494.609C237.847 494.938 237.463 495.103 237.014 495.103Z" fill="white"/>
<path d="M402.705 429.103H298.765C296.422 429.103 294.523 431.072 294.523 433.499V510.793C294.523 513.221 296.422 515.189 298.765 515.189H402.705C405.047 515.189 406.946 513.221 406.946 510.793V433.499C406.946 431.072 405.047 429.103 402.705 429.103Z" fill="#FAFAFA"/>
<path d="M317.961 496.843C318.953 496.843 319.845 496.658 320.635 496.288C321.401 495.933 322.054 495.36 322.518 494.636C322.984 493.911 323.216 493.074 323.216 492.125C323.216 491.191 322.985 490.374 322.523 489.679C322.055 488.977 321.404 488.427 320.647 488.092C321.205 487.751 321.646 487.307 321.968 486.76C322.291 486.208 322.458 485.573 322.45 484.928C322.45 483.754 322.026 482.792 321.176 482.042C320.326 481.292 319.254 480.917 317.961 480.917C316.646 480.917 315.562 481.29 314.709 482.038C313.856 482.783 313.429 483.746 313.429 484.928C313.429 485.603 313.593 486.214 313.922 486.76C314.251 487.307 314.702 487.751 315.275 488.092C314.471 488.447 313.84 488.972 313.382 489.668C312.924 490.363 312.695 491.183 312.695 492.125C312.695 493.074 312.929 493.911 313.393 494.636C313.858 495.36 314.513 495.931 315.28 496.282C316.075 496.656 316.967 496.843 317.961 496.843ZM317.961 487.32C317.317 487.32 316.775 487.104 316.335 486.673C316.122 486.47 315.952 486.222 315.838 485.945C315.724 485.669 315.668 485.37 315.674 485.07C315.674 484.446 315.894 483.922 316.335 483.498C316.775 483.075 317.317 482.863 317.961 482.863C318.597 482.863 319.136 483.075 319.576 483.499C320.017 483.922 320.237 484.446 320.237 485.07C320.237 485.7 320.015 486.232 319.57 486.667C319.139 487.098 318.56 487.332 317.961 487.32ZM317.961 494.581C317.142 494.581 316.465 494.332 315.925 493.832C315.387 493.332 315.118 492.665 315.118 491.832C315.118 491.013 315.387 490.357 315.926 489.864C316.465 489.37 317.142 489.125 317.961 489.125C318.765 489.125 319.436 489.371 319.976 489.863C320.513 490.357 320.782 491.013 320.782 491.83C320.782 492.658 320.513 493.323 319.974 493.826C319.436 494.329 318.767 494.581 317.961 494.581ZM329.705 496.844C330.698 496.844 331.589 496.659 332.379 496.289C333.145 495.934 333.798 495.361 334.262 494.637C334.728 493.912 334.96 493.076 334.96 492.126C334.96 491.192 334.729 490.375 334.268 489.68C333.799 488.978 333.148 488.428 332.391 488.093C332.95 487.752 333.39 487.308 333.712 486.761C334.035 486.209 334.202 485.574 334.195 484.929C334.195 483.755 333.77 482.794 332.92 482.043C332.071 481.294 330.999 480.918 329.705 480.918C328.39 480.918 327.307 481.291 326.453 482.039C325.601 482.784 325.173 483.748 325.173 484.929C325.173 485.604 325.338 486.215 325.666 486.761C325.995 487.308 326.447 487.752 327.019 488.093C326.216 488.448 325.585 488.973 325.127 489.669C324.669 490.364 324.439 491.184 324.439 492.126C324.439 493.076 324.673 493.912 325.137 494.637C325.602 495.361 326.257 495.933 327.025 496.283C327.819 496.657 328.712 496.844 329.705 496.844ZM329.705 487.321C329.061 487.321 328.52 487.105 328.079 486.674C327.865 486.471 327.695 486.223 327.582 485.946C327.468 485.67 327.412 485.371 327.418 485.071C327.418 484.448 327.639 483.923 328.079 483.499C328.52 483.076 329.061 482.864 329.705 482.864C330.341 482.864 330.88 483.076 331.32 483.5C331.761 483.923 331.981 484.448 331.981 485.071C331.981 485.701 331.759 486.233 331.315 486.669C330.883 487.099 330.304 487.333 329.705 487.321ZM329.705 494.582C328.887 494.582 328.208 494.333 327.669 493.833C327.132 493.333 326.862 492.666 326.862 491.833C326.862 491.014 327.132 490.358 327.67 489.865C328.208 489.371 328.887 489.126 329.705 489.126C330.509 489.126 331.18 489.372 331.72 489.864C332.257 490.358 332.526 491.014 332.526 491.832C332.526 492.659 332.257 493.324 331.72 493.827C331.18 494.331 330.509 494.582 329.705 494.582ZM338.649 496.855C339.055 496.855 339.403 496.707 339.693 496.409C339.983 496.112 340.128 495.753 340.128 495.332C340.128 494.912 339.983 494.551 339.693 494.251C339.558 494.106 339.396 493.992 339.216 493.914C339.037 493.837 338.844 493.798 338.649 493.801C338.251 493.801 337.905 493.95 337.611 494.251C337.47 494.391 337.358 494.558 337.282 494.745C337.206 494.931 337.168 495.131 337.171 495.333C337.171 495.746 337.317 496.102 337.611 496.403C337.905 496.704 338.251 496.854 338.65 496.854L338.649 496.855ZM352.765 496.637V494.376H345.862L350.259 489.658C350.965 488.897 351.482 488.183 351.811 487.517C352.14 486.85 352.304 486.121 352.304 485.331C352.304 483.954 351.86 482.872 350.971 482.081C350.084 481.29 348.941 480.896 347.542 480.896C346.052 480.896 344.87 481.328 343.996 482.19C343.122 483.052 342.685 484.288 342.685 485.897V486.766L345.087 487.006V485.864C345.087 484.856 345.307 484.123 345.748 483.663C346.188 483.202 346.79 482.973 347.551 482.973C348.279 482.973 348.856 483.182 349.283 483.598C349.709 484.015 349.922 484.596 349.922 485.342C349.922 486.306 349.423 487.32 348.423 488.386L342.443 494.746V496.637H352.765ZM363.052 496.637V493.604H365.108V491.353H363.051V481.135H359.373L353.614 491.344V493.604H360.642V496.637H363.055H363.052ZM360.64 491.353H355.962L360.64 482.744V491.353ZM369.26 487.733C369.692 487.741 370.12 487.656 370.519 487.484C370.918 487.312 371.278 487.056 371.577 486.733C372.214 486.06 372.532 485.252 372.532 484.31C372.532 483.375 372.214 482.574 371.577 481.907C371.278 481.584 370.918 481.328 370.519 481.156C370.12 480.984 369.692 480.899 369.26 480.907C368.357 480.907 367.584 481.241 366.941 481.907C366.63 482.218 366.384 482.591 366.218 483.005C366.052 483.418 365.97 483.862 365.976 484.31C365.976 485.259 366.296 486.067 366.935 486.733C367.576 487.4 368.35 487.733 369.26 487.733ZM370.413 496.648L378.322 481.113H376.224L368.336 496.648H370.413ZM369.26 486.006C368.812 486.006 368.427 485.841 368.105 485.511C367.949 485.356 367.826 485.17 367.743 484.963C367.66 484.756 367.619 484.534 367.622 484.31C367.622 483.838 367.784 483.442 368.105 483.119C368.256 482.962 368.437 482.839 368.635 482.756C368.833 482.673 369.046 482.632 369.26 482.635C369.713 482.635 370.098 482.799 370.413 483.124C370.728 483.451 370.885 483.845 370.885 484.31C370.885 484.781 370.729 485.182 370.419 485.511C370.107 485.841 369.721 486.006 369.26 486.006ZM377.514 496.822C378.416 496.822 379.183 496.489 379.816 495.822C380.123 495.509 380.365 495.134 380.529 494.721C380.692 494.309 380.773 493.866 380.766 493.42C380.766 492.478 380.448 491.674 379.812 491.012C379.515 490.691 379.158 490.438 378.763 490.267C378.368 490.096 377.943 490.011 377.514 490.017C376.606 490.017 375.828 490.348 375.186 491.012C374.874 491.323 374.628 491.697 374.462 492.112C374.296 492.526 374.214 492.971 374.221 493.42C374.221 494.361 374.54 495.165 375.18 495.827C375.82 496.49 376.599 496.822 377.514 496.822ZM377.514 495.104C377.053 495.104 376.665 494.939 376.35 494.61C376.198 494.455 376.077 494.269 375.996 494.065C375.915 493.86 375.875 493.641 375.878 493.42C375.878 492.941 376.035 492.539 376.35 492.213C376.502 492.053 376.683 491.928 376.883 491.843C377.084 491.759 377.298 491.719 377.514 491.724C377.954 491.724 378.337 491.89 378.663 492.224C378.988 492.557 379.15 492.956 379.15 493.42C379.15 493.883 378.989 494.28 378.668 494.61C378.347 494.939 377.962 495.104 377.514 495.104Z" fill="#1E272E"/>
<path d="M402.704 292.553H169.873C167.531 292.553 165.632 294.521 165.632 296.949V406.897C165.632 409.324 167.531 411.292 169.873 411.292H402.704C405.047 411.292 406.946 409.324 406.946 406.897V296.949C406.946 294.521 405.047 292.553 402.704 292.553Z" fill="#FAFAFA"/>
<path d="M196.155 385.759C198.273 385.759 200.174 385.365 201.86 384.577C203.546 383.772 204.885 382.597 205.877 381.051C206.869 379.505 207.365 377.719 207.365 375.694C207.365 373.699 206.872 371.96 205.888 370.476C204.903 368.992 203.568 367.863 201.882 367.091C203.076 366.363 204.016 365.416 204.703 364.249C205.389 363.082 205.731 361.78 205.731 360.341C205.731 357.836 204.825 355.785 203.013 354.185C201.2 352.583 198.915 351.783 196.155 351.783C193.35 351.783 191.037 352.58 189.218 354.172C187.397 355.765 186.487 357.821 186.487 360.341C186.487 361.78 186.837 363.082 187.539 364.249C188.24 365.416 189.202 366.363 190.426 367.09C188.71 367.848 187.363 368.969 186.386 370.453C185.41 371.936 184.921 373.684 184.921 375.695C184.921 377.719 185.417 379.505 186.409 381.051C187.401 382.597 188.744 383.769 190.437 384.564C192.131 385.361 194.036 385.759 196.155 385.759ZM196.155 365.443C194.781 365.443 193.626 364.983 192.686 364.063C191.746 363.143 191.276 362.004 191.276 360.643C191.276 359.313 191.746 358.196 192.686 357.291C193.626 356.387 194.781 355.935 196.153 355.935C197.512 355.935 198.66 356.387 199.6 357.291C200.54 358.196 201.01 359.313 201.01 360.643C201.01 361.988 200.537 363.125 199.589 364.052C198.642 364.98 197.498 365.443 196.155 365.443ZM196.155 380.936C194.409 380.936 192.962 380.402 191.814 379.334C190.664 378.268 190.09 376.845 190.09 375.068C190.09 373.321 190.664 371.922 191.814 370.87C192.962 369.818 194.409 369.293 196.155 369.293C197.87 369.293 199.302 369.818 200.451 370.87C201.599 371.922 202.174 373.321 202.174 375.068C202.174 376.83 201.599 378.249 200.451 379.323C199.302 380.398 197.87 380.936 196.155 380.936ZM219.203 385.318L229.519 371.171C231.398 368.544 232.338 365.876 232.338 363.171C232.338 361.006 231.83 359.054 230.817 357.314C229.825 355.598 228.397 354.198 226.688 353.268C224.949 352.31 223.021 351.831 220.904 351.831C218.83 351.831 216.924 352.305 215.186 353.256C213.447 354.208 212.061 355.568 211.024 357.337C209.987 359.108 209.475 361.099 209.491 363.309C209.506 365.474 210.002 367.395 210.979 369.072C211.957 370.75 213.213 372.022 214.75 372.888C216.272 373.75 217.982 374.197 219.717 374.187C220.418 374.187 221.089 374.117 221.732 373.978L213.228 385.318H219.203ZM221.037 370.197C219.129 370.197 217.566 369.576 216.35 368.33C215.133 367.086 214.518 365.451 214.504 363.426C214.489 361.431 215.1 359.811 216.338 358.567C217.576 357.322 219.142 356.7 221.037 356.7C222.962 356.7 224.513 357.303 225.692 358.509C226.87 359.716 227.46 361.339 227.46 363.38C227.46 365.312 226.86 366.931 225.658 368.237C224.458 369.545 222.917 370.197 221.037 370.197ZM239.767 385.782C240.632 385.782 241.374 385.466 241.994 384.832C242.293 384.536 242.53 384.179 242.69 383.784C242.849 383.388 242.929 382.963 242.922 382.535C242.922 381.639 242.613 380.87 241.994 380.227C241.706 379.917 241.359 379.672 240.976 379.507C240.593 379.342 240.182 379.259 239.767 379.265C238.917 379.265 238.179 379.586 237.551 380.228C236.925 380.87 236.612 381.639 236.612 382.536C236.612 383.416 236.925 384.178 237.552 384.819C238.177 385.461 238.915 385.782 239.767 385.782ZM254.849 385.318L269.863 356.492V352.247H247.69V357.048H264.07L248.986 385.317H254.85L254.849 385.318ZM291.301 385.318V378.848H295.688V374.047H291.301V352.247H283.447L271.162 374.024V378.849H286.155V385.318H291.301ZM286.155 374.047H276.174L286.155 355.68V374.047ZM304.281 366.325C306.22 366.325 307.868 365.614 309.226 364.191C310.583 362.753 311.262 361.029 311.262 359.019C311.262 357.025 310.583 355.316 309.226 353.894C307.869 352.471 306.22 351.76 304.281 351.76C302.356 351.76 300.707 352.471 299.335 353.894C297.962 355.316 297.276 357.025 297.276 359.019C297.276 361.044 297.959 362.769 299.323 364.191C300.689 365.614 302.341 366.325 304.281 366.325ZM306.742 385.341L323.615 352.201H319.139L302.311 385.341H306.742ZM304.281 362.637C303.326 362.637 302.504 362.285 301.818 361.582C301.486 361.251 301.223 360.853 301.046 360.412C300.869 359.971 300.782 359.496 300.79 359.019C300.79 358.014 301.132 357.168 301.818 356.48C302.141 356.146 302.526 355.883 302.949 355.706C303.371 355.528 303.824 355.44 304.281 355.447C305.25 355.447 306.07 355.796 306.742 356.491C307.413 357.187 307.749 358.03 307.749 359.019C307.749 360.024 307.417 360.878 306.752 361.582C306.089 362.285 305.264 362.637 304.281 362.637ZM321.892 385.713C323.815 385.713 325.453 385.002 326.803 383.579C328.153 382.157 328.828 380.448 328.828 378.454C328.828 376.443 328.15 374.732 326.792 373.316C325.434 371.902 323.8 371.195 321.892 371.195C319.951 371.195 318.296 371.902 316.923 373.316C315.551 374.732 314.865 376.444 314.865 378.454C314.865 380.463 315.548 382.175 316.911 383.591C318.277 385.005 319.936 385.713 321.892 385.713ZM321.892 382.048C320.905 382.048 320.078 381.696 319.407 380.993C319.082 380.662 318.825 380.267 318.652 379.831C318.479 379.394 318.393 378.926 318.4 378.454C318.4 377.433 318.736 376.575 319.407 375.879C320.078 375.184 320.906 374.835 321.892 374.835C322.831 374.835 323.647 375.191 324.341 375.902C325.035 376.613 325.382 377.464 325.382 378.454C325.382 379.443 325.039 380.289 324.353 380.993C323.667 381.696 322.846 382.048 321.892 382.048Z" fill="#343A40"/>
</g>
<defs>
<filter id="filter0_d_2_7" x="-20" y="-10" width="315.686" height="298.258" filterUnits="userSpaceOnUse" color-interpolation-filters="sRGB">
<feFlood flood-opacity="0" result="BackgroundImageFix"/>
<feColorMatrix in="SourceAlpha" type="matrix" values="0 0 0 0 0 0 0 0 0 0 0 0 0 0 0 0 0 0 127 0" result="hardAlpha"/>
<feOffset dy="10"/>
<feGaussianBlur stdDeviation="10"/>
<feColorMatrix type="matrix" values="0 0 0 0 0.311766 0 0 0 0 0.336514 0 0 0 0 0.386011 0 0 0 0.03 0"/>
<feBlend mode="normal" in2="BackgroundImageFix" result="effect1_dropShadow_2_7"/>
<feBlend mode="normal" in="SourceGraphic" in2="effect1_dropShadow_2_7" result="shape"/>
</filter>
<filter id="filter1_d_2_7" x="284.314" y="-10" width="315.686" height="298.258" filterUnits="userSpaceOnUse" color-interpolation-filters="sRGB">
<feFlood flood-opacity="0" result="BackgroundImageFix"/>
<feColorMatrix in="SourceAlpha" type="matrix" values="0 0 0 0 0 0 0 0 0 0 0 0 0 0 0 0 0 0 127 0" result="hardAlpha"/>
<feOffset dy="10"/>
<feGaussianBlur stdDeviation="10"/>
<feColorMatrix type="matrix" values="0 0 0 0 0.311766 0 0 0 0 0.336514 0 0 0 0 0.386011 0 0 0 0.03 0"/>
<feBlend mode="normal" in2="BackgroundImageFix" result="effect1_dropShadow_2_7"/>
<feBlend mode="normal" in="SourceGraphic" in2="effect1_dropShadow_2_7" result="shape"/>
</filter>
<filter id="filter2_d_2_7" x="128.446" y="264.742" width="315.686" height="298.258" filterUnits="userSpaceOnUse" color-interpolation-filters="sRGB">
<feFlood flood-opacity="0" result="BackgroundImageFix"/>
<feColorMatrix in="SourceAlpha" type="matrix" values="0 0 0 0 0 0 0 0 0 0 0 0 0 0 0 0 0 0 127 0" result="hardAlpha"/>
<feOffset dy="10"/>
<feGaussianBlur stdDeviation="10"/>
<feColorMatrix type="matrix" values="0 0 0 0 0.311766 0 0 0 0 0.336514 0 0 0 0 0.386011 0 0 0 0.03 0"/>
<feBlend mode="normal" in2="BackgroundImageFix" result="effect1_dropShadow_2_7"/>
<feBlend mode="normal" in="SourceGraphic" in2="effect1_dropShadow_2_7" result="shape"/>
</filter>
<clipPath id="clip0_2_7">
<rect width="581" height="534" fill="white"/>
</clipPath>
</defs>
</svg>
